<svg version="1.0" xmlns="http://www.w3.org/2000/svg"
 width="72.000000pt" height="116.000000pt" viewBox="0 0 72.000000 116.000000"
 preserveAspectRatio="xMidYMid meet">
<metadata>
Created by potrace 1.15, written by Peter Selinger 2001-2017
</metadata>
<g transform="translate(0.000000,116.000000) scale(0.100000,-0.100000)"
fill="#000000" stroke="none">
<path d="M281 996 c-10 -11 -5 -28 20 -78 21 -43 33 -82 36 -123 5 -60 5 -60
-71 -94 -42 -19 -76 -38 -76 -42 0 -5 -5 -9 -10 -9 -17 0 -122 -73 -152 -105
-32 -35 -35 -60 -9 -75 19 -10 25 -6 145 102 10 9 50 33 90 52 71 36 71 36 74
-17 6 -88 -23 -163 -103 -268 -56 -74 -62 -93 -56 -184 5 -89 80 -143 199
-144 55 -1 92 13 149 56 60 46 72 149 26 220 -14 23 -37 47 -50 54 -13 7 -23
16 -23 21 0 4 -9 8 -20 8 -11 0 -20 5 -20 10 0 14 -54 12 -68 -2 -19 -19 -15
-24 34 -47 58 -28 85 -56 102 -104 11 -31 11 -44 2 -68 -7 -16 -18 -29 -25
-29 -8 0 -15 -3 -17 -7 -1 -5 -22 -18 -46 -30 -39 -20 -47 -21 -84 -10 -109
32 -136 134 -59 215 44 47 81 98 81 112 0 6 4 18 9 28 17 33 31 89 31 122 0
27 16 91 26 108 6 10 128 -85 181 -142 35 -36 70 -66 78 -66 8 0 19 10 26 21
10 19 4 28 -52 86 -66 67 -149 129 -206 154 -25 10 -33 20 -33 39 0 41 -26
154 -44 187 -8 17 -25 34 -36 38 -11 3 -20 11 -20 16 0 14 -16 11 -29 -5z"/>
</g>
</svg>